<svg width="227" height="323" viewBox="0 0 227 323" fill="none" xmlns="http://www.w3.org/2000/svg">
<path d="M222.207 86.1842C221.891 90.127 222.091 94.0942 222.803 97.985H221.265C219.989 94.1753 219.274 90.2 219.143 86.1842H222.207Z" fill="url(#paint0_linear_2_232)"/>
<path d="M225.282 88.7943L217.248 88.2341C217.248 88.2341 217.367 89.4261 217.534 91.369C217.534 91.9889 217.641 92.6802 217.701 93.4431C218.392 102.455 219.406 120.442 216.783 124.626C213.207 130.288 197.449 117.796 196.972 110.954C196.972 110.954 200.798 96.1132 207.962 88.2341C208.63 87.5022 209.346 86.8171 210.108 86.1838C210.323 85.9931 210.537 85.8262 210.764 85.6594L210.406 73.7394L213.005 72.5474C218.31 76.0599 222.938 80.5019 226.665 85.6594L225.282 88.7943Z" fill="url(#paint1_linear_2_232)"/>
<path opacity="0.7" d="M216.795 124.626C216.557 125.03 216.215 125.363 215.806 125.592C210.978 128.453 197.425 117.248 196.984 110.954C196.984 110.954 197.056 110.68 197.199 110.179C198.188 106.675 202.646 92.2992 210.12 86.1842C211.197 86.3245 212.251 86.605 213.255 87.0186C215.081 88.0172 216.573 89.5301 217.546 91.3694C218.214 99.332 219.632 120.085 216.795 124.626Z" fill="#393091"/>
<path opacity="0.2" d="M215.806 125.592C210.978 128.453 197.425 117.248 196.984 110.954C196.984 110.954 197.056 110.68 197.199 110.179C202.872 106.973 218.094 117.999 215.806 125.592Z" fill="white"/>
<path opacity="0.2" d="M217.546 91.333C217.546 91.9528 217.653 92.6442 217.713 93.4071L207.974 88.198C208.641 87.4661 209.358 86.7811 210.12 86.1478C210.334 85.9571 210.549 85.7902 210.775 85.6233L210.418 73.7033L213.016 72.5113C213.016 72.5113 212.897 77.3389 214.208 78.3998C215.52 79.4607 224.233 86.3028 225.294 88.7821L217.248 88.2338C217.248 88.2338 217.379 89.4139 217.546 91.333Z" fill="white"/>
<path d="M110.481 313.391L100.813 314.405L100.325 308.802L99.0016 293.556L108.669 292.531L110.135 309.374L110.481 313.391Z" fill="#F9B3A9"/>
<path d="M194.493 312.164H185.124L184.659 310.054L184.599 309.791L181.691 296.262L181.619 295.988L180.499 290.803H189.88L194.493 312.164Z" fill="#F9B3A9"/>
<path opacity="0.2" d="M108.669 292.531L110.135 309.374L100.325 308.802L99.0016 293.556L108.669 292.531Z" fill="white"/>
<path opacity="0.2" d="M194.219 310.983H194.207L184.611 309.791H184.599L181.762 296.739H181.774L191.298 297.49L194.135 310.566L194.219 310.983Z" fill="white"/>
<path d="M183.872 311.604H195.256C195.442 311.605 195.622 311.669 195.768 311.786C195.913 311.903 196.014 312.065 196.054 312.247L197.902 320.591C197.94 320.794 197.934 321.002 197.883 321.202C197.832 321.401 197.738 321.587 197.607 321.746C197.476 321.906 197.312 322.034 197.126 322.123C196.94 322.212 196.737 322.258 196.531 322.26C192.848 322.201 190.166 321.974 185.541 321.974C182.692 321.974 174.098 322.272 170.164 322.272C166.23 322.272 165.718 318.386 167.327 318.028C174.551 316.455 179.986 314.274 182.299 312.2C182.726 311.805 183.29 311.592 183.872 311.604V311.604Z" fill="#464646"/>
<path d="M99.7883 311.305H111.16C111.346 311.306 111.527 311.37 111.672 311.487C111.817 311.604 111.918 311.767 111.959 311.949L113.806 320.293C113.845 320.495 113.838 320.704 113.787 320.903C113.736 321.103 113.642 321.289 113.511 321.448C113.38 321.607 113.216 321.736 113.03 321.824C112.845 321.913 112.641 321.96 112.435 321.962C108.752 321.902 106.07 321.676 101.445 321.676C98.5963 321.676 90.002 321.974 86.0684 321.974C82.1348 321.974 81.6223 318.088 83.2315 317.73C90.455 316.157 95.8905 313.975 98.203 311.901C98.6338 311.504 99.2025 311.29 99.7883 311.305V311.305Z" fill="#464646"/>
<path d="M98.1195 305.011L111.947 305.464C106.916 213.012 104.568 208.292 149.447 164.629C150.496 177.836 151.676 191.544 152.832 202.964C153.559 210.032 153.774 216.195 154.954 220.725C162.929 251.347 182.155 305.535 182.155 305.535L195.649 306.143C195.649 306.143 178.758 231.87 177.018 207.66C174.741 175.905 182.155 141.528 177.948 116.675L130.804 124.709C88.059 187.229 80.2276 200.747 98.1195 305.011Z" fill="url(#paint2_linear_2_232)"/>
<path opacity="0.3" d="M98.1195 305.011L111.947 305.464C106.916 213.012 104.568 208.292 149.447 164.629C150.496 177.836 151.676 191.544 152.832 202.964C153.559 210.032 153.774 216.195 154.954 220.725C162.929 251.347 182.155 305.535 182.155 305.535L195.649 306.143C195.649 306.143 178.758 231.87 177.018 207.66C174.741 175.905 182.155 141.528 177.948 116.675L130.804 124.709C88.059 187.229 80.2276 200.747 98.1195 305.011Z" fill="#393091"/>
<path d="M10.1618 39.827C6.39509 45.2506 0.423195 64.6325 0.423195 70.974C0.423195 77.3154 0.303988 75.1341 3.87999 77.0293C7.45599 78.9246 19.0303 85.278 24.6923 89.7957C30.3543 94.3133 31.9158 91.3572 34.121 95.9821C36.3262 100.607 49.7243 62.4989 52.6089 58.2911C55.4936 54.0833 52.0368 56.0144 49.2117 53.5231C46.3867 51.0318 33.8945 42.9501 27.0882 39.8986C20.2819 36.847 17.147 41.6985 15.2517 39.8986C13.3564 38.0986 10.1618 39.827 10.1618 39.827Z" fill="#F0F0F0"/>
<path d="M72.9326 73.1557C72.9326 73.1557 62.9675 97.1864 59.2485 98.0685C55.8989 98.8552 34.2999 64.9785 34.2999 64.9785C34.2999 64.9785 31.4748 54.4532 31.153 51.3898C30.8312 48.3263 17.3258 54.9657 17.004 56.8014C16.6821 58.6371 20.9614 70.9505 26.3731 71.8922C26.3731 71.8922 44.8729 113.708 56.5545 116.533C68.2361 119.358 92.6245 79.1276 92.6245 79.1276L72.9326 73.1557Z" fill="#F9B3A9"/>
<path d="M137.897 36.6563C137.897 36.6563 170.236 39.6006 176.458 42.4852C182.68 45.3698 209.583 82.3218 209.583 82.3218C209.583 82.3218 220.788 86.1481 220.311 90.1771C219.835 94.2061 219.429 101.549 216.223 100.404C213.016 99.2601 204.672 92.3466 204.672 92.3466L204.327 88.7706C204.327 88.7706 172.739 55.1442 171.463 54.2026C170.188 53.2609 138.445 52.2477 138.445 52.2477L137.897 36.6563Z" fill="#F9B3A9"/>
<path d="M112.936 33.3785C133.2 29.8621 145.502 33.3785 156.969 36.1439L153.881 56.253L130.041 60.27L112.936 33.3785Z" fill="#464646"/>
<path d="M74.8994 39.9226C75.2689 40.1968 75.6503 40.459 76.0914 40.6974C78.3467 42.0561 80.9606 42.7002 83.589 42.545C84.2547 42.512 84.9165 42.4243 85.5678 42.2828C88.0869 41.7965 90.3766 40.496 92.0844 38.5814C93.7923 36.6667 94.8238 34.244 95.0203 31.6859C95.664 25.0464 92.0999 20.8744 86.6763 13.3648C85.4298 11.5914 83.7506 10.166 81.7983 9.22395C79.846 8.28191 77.6852 7.85448 75.5213 7.98226C73.3573 8.11005 71.262 8.78879 69.4341 9.95406C67.6062 11.1193 66.1065 12.7325 65.0773 14.6403C60.3093 23.2584 68.0573 34.7374 74.8994 39.9226Z" fill="#F9B3A9"/>
<path opacity="0.2" d="M83.5414 42.5446C84.207 42.5116 84.8688 42.4239 85.5201 42.2823C87.2447 41.9407 88.8714 41.2189 90.2818 40.1693C91.6923 39.1197 92.8509 37.7689 93.6734 36.215C92.6446 35.6123 91.543 35.1436 90.3954 34.8204C87.4191 36.6867 85.0404 39.3674 83.5414 42.5446Z" fill="white"/>
<path d="M105.593 40.0773C104.687 46.1804 95.0442 52.0689 95.0442 52.0689C95.0442 52.0689 88.4286 55.0012 88.1902 52.3907C90.9437 49.2557 91.2774 46.5141 90.3596 44.0467C89.7456 42.5843 88.8459 41.2592 87.7133 40.1489C87.1048 39.5085 86.46 38.9036 85.7823 38.337L90.0139 21.649C92.8866 28.062 99.0373 39.088 105.593 40.0773Z" fill="#F9B3A9"/>
<path d="M65.3038 22.0428C65.7687 21.9355 66.305 22.1859 66.8176 23.3063C68.1765 26.3221 72.7776 29.9577 76.2821 30.661C79.7866 31.3643 86.128 37.0024 86.128 37.0024C86.128 37.0024 90.3239 31.4 95.7832 30.0292C95.7832 30.0292 98.7513 18.2642 92.0284 9.76523L65.3038 22.0428Z" fill="#464646"/>
<path d="M77.9628 27.3826C78.3757 28.17 78.6091 29.039 78.6462 29.9273C78.6833 30.8156 78.5232 31.7011 78.1773 32.5201C77.2237 34.332 74.6014 33.0565 73.0279 30.7321C71.6691 28.6581 70.4532 25.1536 72.3127 24.2238C74.1722 23.2941 76.89 25.0344 77.9628 27.3826Z" fill="#F9B3A9"/>
<path d="M92.6244 13.2217C92.6244 13.2217 95.4137 7.45239 85.7823 2.14799C76.1509 -3.15641 64.7078 5.33064 61.2867 11.0999C59.6948 11.7301 58.3109 12.793 57.2914 14.1685C56.2719 15.544 55.6574 17.1773 55.5174 18.8837C54.695 25.1298 63.3012 27.1323 63.3012 27.1323C63.3012 27.1323 60.2258 25.2132 59.6418 23.4014C59.6418 23.4014 60.8337 26.286 66.603 25.2609C66.1538 25.1283 65.7435 24.8888 65.4072 24.5628C65.0709 24.2369 64.8186 23.8343 64.672 23.3894C64.672 23.3894 69.0109 26.7032 74.9709 21.661C80.9309 16.6189 92.6244 13.2217 92.6244 13.2217Z" fill="#464646"/>
<path opacity="0.2" d="M149.447 164.57C150.496 177.777 151.688 191.461 152.88 202.928C154.573 186.443 156.647 174.69 156.647 174.69C156.647 174.69 158.59 173.093 163.93 164.57C169.27 156.047 163.93 140.134 163.93 140.134C164.049 154.915 149.447 164.57 149.447 164.57Z" fill="white"/>
<path d="M96.5699 303.521L97.2375 307.395H113.484V303.819L96.5699 303.521Z" fill="url(#paint3_linear_2_232)"/>
<path d="M180.558 305.012L182.108 308.588H196.912L196.626 305.012H180.558Z" fill="url(#paint4_linear_2_232)"/>
<path d="M76.592 58.3747C76.592 58.3747 93.721 33.3427 120.875 32.401C120.875 32.401 165.67 70.0086 181.238 122.314L121.197 138.918C121.197 138.918 100.861 90.3918 76.592 58.3747Z" fill="#464646"/>
<path d="M76.592 58.3742C69.3208 71.0332 63.6111 88.0073 63.6111 88.0073L81.9917 100.523L96.4865 84.5624C96.4865 84.5624 96.6772 72.6424 88.655 64.7395C80.6329 56.8365 76.592 58.3742 76.592 58.3742Z" fill="#464646"/>
<path opacity="0.8" d="M181.19 122.326L121.149 138.93C113.3 120.669 104.393 102.882 94.472 85.6596V85.6596C94.472 84.9921 93.0297 57.6714 90.8007 46.0971C90.8007 46.0971 98.6678 39.1597 106.916 37.5743C106.916 37.5743 126.489 37.5743 145.597 58.2794C158.637 74.1687 173.49 96.4472 181.19 122.326Z" fill="#393091"/>
<path opacity="0.7" d="M96.5699 303.521L97.2375 307.395H113.484V303.819L96.5699 303.521Z" fill="#393091"/>
<path opacity="0.7" d="M180.558 305.012L182.108 308.588H196.912L196.626 305.012H180.558Z" fill="#393091"/>
<defs>
<linearGradient id="paint0_linear_2_232" x1="219.143" y1="97.9851" x2="222.803" y2="97.9851" gradientUnits="userSpaceOnUse">
<stop stop-color="#00F0FF"/>
<stop offset="0.46875" stop-color="#5773FF"/>
<stop offset="1" stop-color="#FF007A"/>
</linearGradient>
<linearGradient id="paint1_linear_2_232" x1="196.972" y1="126.058" x2="226.665" y2="126.058" gradientUnits="userSpaceOnUse">
<stop stop-color="#00F0FF"/>
<stop offset="0.46875" stop-color="#5773FF"/>
<stop offset="1" stop-color="#FF007A"/>
</linearGradient>
<linearGradient id="paint2_linear_2_232" x1="89.1404" y1="306.143" x2="195.649" y2="306.143" gradientUnits="userSpaceOnUse">
<stop stop-color="#00F0FF"/>
<stop offset="0.46875" stop-color="#5773FF"/>
<stop offset="1" stop-color="#FF007A"/>
</linearGradient>
<linearGradient id="paint3_linear_2_232" x1="96.5699" y1="307.395" x2="113.484" y2="307.395" gradientUnits="userSpaceOnUse">
<stop stop-color="#00F0FF"/>
<stop offset="0.46875" stop-color="#5773FF"/>
<stop offset="1" stop-color="#FF007A"/>
</linearGradient>
<linearGradient id="paint4_linear_2_232" x1="180.558" y1="308.588" x2="196.912" y2="308.588" gradientUnits="userSpaceOnUse">
<stop stop-color="#00F0FF"/>
<stop offset="0.46875" stop-color="#5773FF"/>
<stop offset="1" stop-color="#FF007A"/>
</linearGradient>
</defs>
</svg>
